HIERARCHY
ROOT Haolin_V1:Solving:Hips
{
	OFFSET 0.000000 0.000000 0.000000
	CHANNELS 6 Xposition Yposition Zposition Xrotation Yrotation Zrotation
	JOINT Haolin_V1:Solving:Spine
	{
		OFFSET 0.000000 -12.731938 2.520517
		CHANNELS 6 Xposition Yposition Zposition Xrotation Yrotation Zrotation
		JOINT Haolin_V1:Solving:Spine1
		{
			OFFSET 0.000000 -8.486854 1.496462
			CHANNELS 6 Xposition Yposition Zposition Xrotation Yrotation Zrotation
			JOINT Haolin_V1:Solving:Spine2
			{
				OFFSET 0.000000 -8.584984 0.751091
				CHANNELS 6 Xposition Yposition Zposition Xrotation Yrotation Zrotation
				JOINT Haolin_V1:Solving:Spine3
				{
					OFFSET 0.000000 -8.617775 0.000000
					CHANNELS 6 Xposition Yposition Zposition Xrotation Yrotation Zrotation
					JOINT Haolin_V1:Solving:Neck
					{
						OFFSET 0.000000 -11.080002 -1.107998
						CHANNELS 6 Xposition Yposition Zposition Xrotation Yrotation Zrotation
						JOINT Haolin_V1:Solving:Neck1
						{
							OFFSET 0.000000 -8.314011 -0.727381
							CHANNELS 6 Xposition Yposition Zposition Xrotation Yrotation Zrotation
							JOINT Haolin_V1:Solving:Head
							{
								OFFSET 0.000000 -8.218975 -1.449226
								CHANNELS 6 Xposition Yposition Zposition Xrotation Yrotation Zrotation
								JOINT Haolin_V1:Solving:HeadEnd
								{
									OFFSET 0.000000 -9.728081 0.000002
									CHANNELS 6 Xposition Yposition Zposition Xrotation Yrotation Zrotation
									End Site
									{
										OFFSET 0.000000 -9.728081 0.000002
									}
								}
							}
						}
					}
					JOINT Haolin_V1:Solving:RightShoulder
					{
						OFFSET 0.000000 -7.914288 -5.288076
						CHANNELS 6 Xposition Yposition Zposition Xrotation Yrotation Zrotation
						JOINT Haolin_V1:Solving:RightArm
						{
							OFFSET -20.201836 -0.000008 0.000000
							CHANNELS 6 Xposition Yposition Zposition Xrotation Yrotation Zrotation
							JOINT Haolin_V1:Solving:RightForeArm
							{
								OFFSET -29.446457 -0.000008 0.000000
								CHANNELS 6 Xposition Yposition Zposition Xrotation Yrotation Zrotation
								JOINT Haolin_V1:Solving:RightHand
								{
									OFFSET -23.111885 -0.000008 0.000000
									CHANNELS 6 Xposition Yposition Zposition Xrotation Yrotation Zrotation
									JOINT Haolin_V1:Solving:RightHandThumb1
									{
										OFFSET -3.824379 2.925484 -2.843767
										CHANNELS 6 Xposition Yposition Zposition Xrotation Yrotation Zrotation
										End Site
										{
											OFFSET -5.557076 0.000000 -5.608460
										}
									}
									JOINT Haolin_V1:Solving:RightHandMiddle1
									{
										OFFSET -10.198334 -0.000004 0.065374
										CHANNELS 6 Xposition Yposition Zposition Xrotation Yrotation Zrotation
										End Site
										{
											OFFSET -7.895309 -0.000004 0.000000
										}
									}
								}
							}
						}
					}
					JOINT Haolin_V1:Solving:LeftShoulder
					{
						OFFSET 0.000000 -7.914288 -5.288076
						CHANNELS 6 Xposition Yposition Zposition Xrotation Yrotation Zrotation
						JOINT Haolin_V1:Solving:LeftArm
						{
							OFFSET 20.201836 -0.000008 0.000000
							CHANNELS 6 Xposition Yposition Zposition Xrotation Yrotation Zrotation
							JOINT Haolin_V1:Solving:LeftForeArm
							{
								OFFSET 29.446457 -0.000008 0.000000
								CHANNELS 6 Xposition Yposition Zposition Xrotation Yrotation Zrotation
								JOINT Haolin_V1:Solving:LeftHand
								{
									OFFSET 23.111885 -0.000008 0.000000
									CHANNELS 6 Xposition Yposition Zposition Xrotation Yrotation Zrotation
									JOINT Haolin_V1:Solving:LeftHandThumb1
									{
										OFFSET 3.824379 2.925484 -2.843767
										CHANNELS 6 Xposition Yposition Zposition Xrotation Yrotation Zrotation
										End Site
										{
											OFFSET 5.557076 0.000000 -5.608460
										}
									}
									JOINT Haolin_V1:Solving:LeftHandMiddle1
									{
										OFFSET 10.198334 -0.000004 0.065374
										CHANNELS 6 Xposition Yposition Zposition Xrotation Yrotation Zrotation
										End Site
										{
											OFFSET 7.895309 -0.000004 0.000000
										}
									}
								}
							}
						}
					}
				}
			}
		}
	}
	JOINT Haolin_V1:Solving:RightUpLeg
	{
		OFFSET -10.695510 0.000000 0.000000
		CHANNELS 6 Xposition Yposition Zposition Xrotation Yrotation Zrotation
		JOINT Haolin_V1:Solving:RightLeg
		{
			OFFSET 0.000000 46.236332 -0.000006
			CHANNELS 6 Xposition Yposition Zposition Xrotation Yrotation Zrotation
			JOINT Haolin_V1:Solving:RightFoot
			{
				OFFSET 0.000000 41.248135 -0.000006
				CHANNELS 6 Xposition Yposition Zposition Xrotation Yrotation Zrotation
				JOINT Haolin_V1:Solving:RightForeFoot
				{
					OFFSET 0.000000 3.207336 -0.000000
					CHANNELS 6 Xposition Yposition Zposition Xrotation Yrotation Zrotation
					JOINT Haolin_V1:Solving:RightToeBase
					{
						OFFSET 0.000000 0.000000 -12.560947
						CHANNELS 6 Xposition Yposition Zposition Xrotation Yrotation Zrotation
						JOINT Haolin_V1:Solving:RightToeBaseEnd
						{
							OFFSET 0.000000 0.000000 -3.517768
							CHANNELS 6 Xposition Yposition Zposition Xrotation Yrotation Zrotation
							End Site
							{
								OFFSET 0.000000 -3.517769 0.000004
							}
						}
					}
				}
			}
		}
	}
	JOINT Haolin_V1:Solving:LeftUpLeg
	{
		OFFSET 10.695510 0.000000 0.000000
		CHANNELS 6 Xposition Yposition Zposition Xrotation Yrotation Zrotation
		JOINT Haolin_V1:Solving:LeftLeg
		{
			OFFSET 0.000000 46.236332 -0.000006
			CHANNELS 6 Xposition Yposition Zposition Xrotation Yrotation Zrotation
			JOINT Haolin_V1:Solving:LeftFoot
			{
				OFFSET 0.000000 41.248135 -0.000006
				CHANNELS 6 Xposition Yposition Zposition Xrotation Yrotation Zrotation
				JOINT Haolin_V1:Solving:LeftForeFoot
				{
					OFFSET 0.000000 3.207336 -0.000000
					CHANNELS 6 Xposition Yposition Zposition Xrotation Yrotation Zrotation
					JOINT Haolin_V1:Solving:LeftToeBase
					{
						OFFSET 0.000000 0.000000 -12.560947
						CHANNELS 6 Xposition Yposition Zposition Xrotation Yrotation Zrotation
						JOINT Haolin_V1:Solving:LeftToeBaseEnd
						{
							OFFSET 0.000000 0.000000 -3.901837
							CHANNELS 6 Xposition Yposition Zposition Xrotation Yrotation Zrotation
							End Site
							{
								OFFSET 0.000000 -3.901840 0.000004
							}
						}
					}
				}
			}
		}
	}
}
MOTION
Frames: 5
Frame Time: 0.041667
-6.905156 -87.397293 -94.649155 82.824370 -15.320393 -4.306372 -0.000003 -12.731945 2.520519 11.318633 -0.152721 1.172665 -0.000005 -8.486834 1.496456 0.084345 -0.243762 0.546565 0.000003 -8.584994 0.751096 -4.967416 -2.188607 1.097239 -0.000000 -8.617791 -0.000004 -2.485359 -0.984462 2.371247 0.000002 -11.080003 -1.107984 2.923866 7.485580 0.044734 0.000001 -8.314008 -0.727375 2.841419 12.137111 -1.402514 0.000001 -8.219001 -1.449209 11.337022 1.078388 -3.220318 -0.000001 -9.728043 0.000011 0.000000 0.000000 -0.000000 -0.000002 -7.914303 -5.288076 -0.000007 14.242713 10.493994 -20.201830 -0.000043 -0.000022 -18.601568 -41.857110 -88.805034 -29.446409 -0.000008 0.000003 -345.605332 -51.874812 -348.585371 -23.111902 -0.000023 0.000003 0.602771 -2.811737 12.105297 -3.824370 2.925506 -2.843785 0.000008 0.000002 0.000002 -10.198338 0.000001 0.065346 0.000004 -0.000002 0.000004 -0.000000 -7.914307 -5.288077 -0.000003 -7.918354 -8.433979 20.201845 -0.000020 0.000011 -10.402203 42.874593 92.481280 29.446442 -0.000013 0.000004 28.962157 10.563799 -5.793562 23.111862 -0.000015 0.000002 0.592507 3.914264 -8.614603 3.824403 2.925480 -2.843762 0.000004 -0.000007 0.000001 10.198335 -0.000005 0.065371 0.000002 0.000000 0.000002 -10.695511 0.000001 0.000002 5.585653 8.651097 9.835227 -0.000005 46.236336 -0.000036 11.042472 0.000001 0.000003 -0.000000 41.248154 -0.000013 -9.894544 -2.319473 -8.394772 0.000001 3.207336 0.000002 0.000000 -0.000001 0.000000 0.000006 -0.000002 -12.560931 9.635238 -0.000002 0.000000 0.000005 0.000008 -3.517762 0.000000 0.000002 -0.000000 10.695503 -0.000003 -0.000012 4.816377 -12.805145 5.716106 -0.000002 46.236355 -0.000005 5.882803 0.000004 -0.000000 -0.000002 41.248138 0.000010 -3.209584 -5.614428 -5.215964 -0.000002 3.207329 -0.000011 -0.000000 -0.000005 0.000000 -0.000002 -0.000010 -12.560937 2.578732 0.000006 0.000000 0.000008 -0.000000 -3.901837 -0.000000 -0.000002 0.000000 
-6.884961 -87.401131 -94.642097 82.791844 -15.314280 -4.336116 0.000004 -12.731925 2.520506 11.327600 -0.194552 1.198442 -0.000001 -8.486858 1.496481 0.096627 -0.240364 0.534758 -0.000001 -8.584985 0.751094 -4.961287 -2.137290 1.112968 0.000003 -8.617771 -0.000006 -2.476997 -0.947622 2.415682 -0.000002 -11.079997 -1.108012 2.952723 7.458116 0.056695 0.000003 -8.313972 -0.727375 2.802088 12.201536 -1.419502 0.000003 -8.218988 -1.449240 11.288795 1.088083 -3.244107 -0.000000 -9.728096 0.000009 -0.000000 0.000000 -0.000000 0.000005 -7.914265 -5.288074 -0.000004 14.296100 10.756269 -20.201824 -0.000003 -0.000009 -18.267811 -40.956126 -88.846506 -29.446451 -0.000010 -0.000008 -346.165134 -53.788996 -348.761753 -23.111870 -0.000009 0.000002 0.481107 -2.347405 11.586096 -3.824410 2.925477 -2.843760 0.000004 -0.000000 -0.000001 -10.198340 -0.000010 0.065363 0.000003 -0.000000 0.000001 0.000006 -7.914253 -5.288074 -0.000000 -8.013793 -8.467284 20.201841 -0.000028 0.000006 -10.382371 42.876963 92.442656 29.446455 -0.000017 -0.000007 29.102142 10.457865 -5.769404 23.111866 -0.000019 -0.000005 0.587614 3.905071 -8.564244 3.824374 2.925495 -2.843747 -0.000004 -0.000005 0.000003 10.198318 -0.000002 0.065388 -0.000010 0.000002 -0.000001 -10.695517 0.000008 -0.000031 5.570075 8.686619 9.880697 -0.000003 46.236320 -0.000016 11.121093 0.000000 0.000003 -0.000001 41.248135 0.000004 -9.960397 -2.355505 -8.403330 -0.000001 3.207336 0.000007 -0.000000 -0.000000 0.000000 0.000005 -0.000007 -12.560944 9.674149 0.000000 -0.000000 0.000000 0.000007 -3.517754 -0.000001 0.000000 -0.000000 10.695517 0.000003 -0.000010 4.869026 -12.922139 5.745927 -0.000006 46.236340 -0.000035 5.885120 0.000004 0.000000 0.000003 41.248138 -0.000018 -3.226826 -5.495712 -5.207009 -0.000006 3.207336 -0.000008 0.000000 -0.000006 0.000000 -0.000015 -0.000004 -12.560953 2.536331 -0.000002 -0.000000 -0.000000 -0.000000 -3.901829 -0.000000 -0.000005 -0.000000 
-6.846437 -87.415642 -94.635239 82.761368 -15.361982 -4.409217 0.000005 -12.731935 2.520514 11.337226 -0.172983 1.227505 0.000005 -8.486876 1.496470 0.108421 -0.232029 0.533046 0.000000 -8.584971 0.751093 -4.945924 -2.046295 1.126744 -0.000005 -8.617751 0.000010 -2.457603 -0.892288 2.511683 -0.000006 -11.080001 -1.108016 2.918664 7.369934 0.039172 0.000000 -8.313992 -0.727382 2.799431 12.254089 -1.436981 0.000000 -8.218933 -1.449224 11.235835 1.096182 -3.271655 -0.000000 -9.728058 0.000013 0.000000 -0.000000 0.000000 -0.000000 -7.914265 -5.288068 -0.000003 14.313481 10.780664 -20.201832 0.000017 -0.000000 -17.590174 -40.875267 -88.219782 -29.446470 -0.000019 -0.000005 -347.909537 -56.362011 -349.888325 -23.111895 -0.000027 -0.000017 0.307342 -1.482527 11.713890 -3.824396 2.925486 -2.843752 -0.000001 -0.000003 -0.000003 -10.198335 -0.000000 0.065384 0.000003 -0.000003 -0.000001 0.000003 -7.914265 -5.288069 0.000000 -8.195187 -8.546742 20.201826 -0.000009 -0.000005 -10.410419 42.928179 92.422712 29.446472 0.000000 0.000007 29.175744 10.361845 -5.734540 23.111870 -0.000013 0.000012 0.580456 3.882016 -8.510778 3.824387 2.925498 -2.843758 -0.000002 0.000009 0.000001 10.198364 0.000010 0.065379 -0.000008 0.000001 -0.000000 -10.695504 -0.000004 -0.000018 5.542557 8.812277 9.984334 -0.000002 46.236317 -0.000028 11.185457 0.000000 0.000001 0.000001 41.248142 -0.000038 -10.005430 -2.435765 -8.471905 0.000001 3.207352 0.000004 -0.000000 0.000000 -0.000000 -0.000000 -0.000009 -12.560940 9.550884 0.000000 0.000000 0.000005 0.000008 -3.517763 -0.000000 0.000000 -0.000000 10.695518 -0.000002 0.000004 4.917673 -12.810269 5.833610 0.000001 46.236347 -0.000012 5.844227 -0.000001 -0.000001 0.000000 41.248131 -0.000006 -3.212501 -5.562384 -5.313527 -0.000006 3.207336 -0.000025 0.000000 -0.000002 -0.000000 0.000004 0.000000 -12.560954 2.694823 0.000007 0.000000 -0.000011 0.000000 -3.901854 -0.000000 -0.000000 0.000000 
-6.821030 -87.421165 -94.628242 82.712696 -15.365028 -4.451522 0.000007 -12.731945 2.520507 11.367608 -0.192526 1.260285 -0.000005 -8.486861 1.496467 0.121696 -0.230602 0.528997 -0.000001 -8.584976 0.751093 -4.936731 -2.017323 1.129638 -0.000000 -8.617777 0.000004 -2.460170 -0.879453 2.522394 0.000001 -11.079965 -1.108013 2.904844 7.382757 0.061319 0.000000 -8.314029 -0.727383 2.803568 12.322208 -1.426484 -0.000001 -8.218946 -1.449211 11.200303 1.102422 -3.277988 0.000002 -9.728111 0.000010 0.000001 -0.000000 0.000000 0.000004 -7.914276 -5.288083 -0.000006 14.405678 10.922708 -20.201832 0.000020 -0.000005 -16.955267 -40.487719 -87.761176 -29.446465 -0.000010 -0.000006 -349.300464 -58.950885 -350.805209 -23.111887 -0.000022 -0.000027 0.139564 -0.665465 11.845719 -3.824386 2.925498 -2.843785 0.000008 0.000010 -0.000009 -10.198335 0.000001 0.065347 0.000002 -0.000001 -0.000002 0.000004 -7.914261 -5.288083 -0.000002 -8.218791 -8.549228 20.201841 0.000005 -0.000003 -10.352876 42.915414 92.391860 29.446470 -0.000007 -0.000001 29.335147 10.289318 -5.732132 23.111876 -0.000026 -0.000010 0.557608 3.752737 -8.457859 3.824396 2.925478 -2.843768 -0.000002 -0.000002 0.000003 10.198338 0.000001 0.065363 0.000001 0.000000 0.000004 -10.695505 -0.000002 -0.000022 5.545072 8.873839 10.041719 -0.000006 46.236332 -0.000027 11.250218 -0.000000 -0.000002 -0.000007 41.248150 -0.000009 -10.063951 -2.480793 -8.495987 0.000003 3.207336 -0.000025 0.000000 0.000002 0.000000 0.000003 0.000005 -12.560967 9.602651 -0.000001 0.000000 -0.000002 0.000000 -3.517780 0.000001 -0.000000 0.000000 10.695511 0.000008 -0.000017 5.001173 -12.747328 5.887330 0.000001 46.236343 -0.000010 5.780859 -0.000002 0.000000 -0.000007 41.248135 -0.000018 -3.177560 -5.588749 -5.219946 0.000002 3.207329 0.000002 -0.000000 -0.000003 -0.000000 0.000012 -0.000000 -12.560943 2.593862 -0.000000 -0.000000 0.000003 -0.000000 -3.901832 -0.000000 0.000001 0.000000 
-6.781605 -87.434151 -94.623192 82.660507 -15.409322 -4.522329 0.000002 -12.731908 2.520516 11.400862 -0.154727 1.312170 0.000003 -8.486846 1.496460 0.138068 -0.235242 0.543795 0.000001 -8.584983 0.751089 -4.922613 -2.041562 1.112607 -0.000001 -8.617773 0.000022 -2.450202 -0.918926 2.477984 0.000002 -11.079989 -1.108006 2.886051 7.508334 0.129337 0.000005 -8.313974 -0.727364 2.783408 12.360170 -1.429031 0.000000 -8.218974 -1.449219 11.159981 1.107207 -3.282170 0.000001 -9.728081 0.000016 -0.000000 -0.000000 0.000000 -0.000000 -7.914272 -5.288091 -0.000007 14.621893 11.018717 -20.201828 0.000033 -0.000024 -16.226771 -40.085957 -87.161642 -29.446453 -0.000012 0.000007 -350.419850 -61.793548 -351.540056 -23.111881 -0.000017 -0.000003 -0.066023 0.308375 12.084743 -3.824405 2.925482 -2.843772 0.000007 0.000002 -0.000004 -10.198333 0.000001 0.065351 0.000004 0.000002 0.000002 0.000003 -7.914276 -5.288092 -0.000003 -8.158243 -8.506493 20.201822 -0.000018 0.000000 -10.336961 42.906251 92.401210 29.446472 -0.000006 0.000008 29.438867 10.172728 -5.692179 23.111889 -0.000010 -0.000001 0.552310 3.729238 -8.430716 3.824369 2.925469 -2.843761 0.000003 0.000003 -0.000003 10.198316 -0.000010 0.065374 -0.000003 0.000003 -0.000003 -10.695508 0.000006 -0.000004 5.548746 9.012188 10.136796 0.000005 46.236340 -0.000003 11.295025 -0.000000 -0.000000 -0.000002 41.248131 -0.000030 -10.118737 -2.562633 -8.552691 0.000002 3.207336 -0.000002 0.000000 0.000001 0.000000 0.000007 0.000003 -12.560949 9.687046 0.000000 -0.000000 -0.000000 0.000000 -3.517779 0.000001 -0.000001 -0.000000 10.695515 -0.000000 0.000004 5.073127 -12.542381 5.974216 0.000005 46.236343 0.000002 5.715000 0.000007 -0.000000 0.000008 41.248131 -0.000007 -3.151152 -5.743359 -5.306208 0.000000 3.207336 -0.000007 -0.000000 0.000001 -0.000000 0.000009 -0.000014 -12.560953 2.718729 0.000001 -0.000000 0.000022 -0.000000 -3.901839 -0.000000 0.000002 -0.000000 
